<svg width="457" height="401" viewBox="0 0 457 401" fill="none" xmlns="http://www.w3.org/2000/svg">
<path opacity="0.2" d="M43.4678 320.165C32.1971 320.165 21.3874 315.696 13.4145 307.739C5.44149 299.783 0.957502 288.99 0.947965 277.733C0.947965 266.47 5.42771 255.668 13.4017 247.704C21.3757 239.739 32.1908 235.265 43.4678 235.265H85.9996L85.9996 277.733C85.9901 288.992 81.5045 299.787 73.5289 307.743C65.5533 315.7 54.7406 320.168 43.4678 320.165Z" fill="#737373"/>
<path opacity="0.2" d="M62.1154 187.484C55.7989 187.484 49.7409 189.994 45.2726 194.461C40.8043 198.928 38.2914 204.987 38.286 211.307C38.286 217.631 40.7966 223.695 45.2655 228.167C49.7344 232.638 55.7955 235.15 62.1154 235.15H85.9515V211.307C85.9462 204.986 83.4323 198.926 78.9625 194.458C74.4928 189.991 68.433 187.483 62.1154 187.484Z" fill="#737373"/>
<path opacity="0.2" d="M256.155 34.7783H362.726V140.136C362.726 126.3 359.969 112.6 354.613 99.8174C349.258 87.0348 341.408 75.4202 331.512 65.6369C321.616 55.8535 309.868 48.0929 296.938 42.7982C284.008 37.5034 270.15 34.7783 256.155 34.7783Z" fill="#737373"/>
<path opacity="0.2" d="M179.998 235L286.569 235L286.569 340.358C286.569 326.522 283.812 312.822 278.456 300.039C273.101 287.257 265.251 275.642 255.355 265.859C245.459 256.075 233.71 248.315 220.781 243.02C207.851 237.725 193.993 235 179.998 235Z" fill="#737373"/>
<path opacity="0.2" d="M325.323 183.098H309.44V166.731C309.44 164.582 309.851 162.454 310.649 160.468C311.448 158.483 312.617 156.678 314.092 155.159C315.567 153.639 317.318 152.433 319.245 151.611C321.172 150.788 323.238 150.365 325.323 150.365H341.207V166.731C341.207 171.072 339.533 175.235 336.554 178.304C333.576 181.373 329.536 183.098 325.323 183.098Z" fill="#737373"/>
<path opacity="0.2" d="M395.517 304H358V341.429H395.517V304Z" fill="#737373"/>
<path opacity="0.2" d="M395.517 341.424H358V304L395.517 341.424Z" fill="#737373"/>
<path opacity="0.2" d="M432.406 0L397.566 -1.52292e-06C397.566 9.22338 393.896 18.0691 387.362 24.592C380.828 31.1148 371.967 34.7806 362.725 34.7832L362.725 69.5566C371.877 69.5566 380.939 67.7574 389.393 64.2618C397.848 60.7661 405.53 55.6424 412.001 49.1834C418.471 42.7243 423.604 35.0563 427.105 26.6174C430.606 18.1785 432.408 9.13384 432.406 0Z" fill="#737373"/>
<path opacity="0.2" d="M63.2863 118.461L63.2825 118.464C55.9578 125.772 44.0822 125.772 36.7575 118.464L36.7538 118.461C29.4291 111.153 29.4291 99.3053 36.7538 91.9978L36.7575 91.9941C44.0822 84.6866 55.9579 84.6866 63.2825 91.9941L63.2863 91.9978C70.611 99.3053 70.611 111.153 63.2863 118.461Z" fill="#737373"/>
<path opacity="0.2" d="M273.731 387.656L273.727 387.66C266.402 394.967 254.527 394.967 247.202 387.66L247.198 387.656C239.874 380.349 239.874 368.501 247.198 361.193L247.202 361.19C254.527 353.882 266.402 353.882 273.727 361.19L273.731 361.193C281.055 368.501 281.055 380.349 273.731 387.656Z" fill="#737373"/>
<path opacity="0.2" d="M85.9996 235.265H180.274C180.274 222.773 177.835 210.402 173.098 198.861C168.36 187.319 161.416 176.832 152.661 167.999C143.907 159.165 133.515 152.158 122.077 147.377C110.639 142.597 98.3799 140.136 85.9996 140.136V235.265Z" fill="#737373"/>
<path opacity="0.2" d="M103.727 140.479H121.464L85.9996 105.098V87.4021L139.201 140.479H156.928H85.9996V122.783L103.727 140.479Z" fill="#737373"/>
<path opacity="0.2" d="M156.928 105.098L121.464 69.7066H103.727L156.928 122.783V140.479L85.9996 69.7066H139.201L156.928 87.4021V105.098Z" fill="#737373"/>
<path opacity="0.2" d="M174.656 140.479H192.393L156.929 105.098V87.4021L210.13 140.479H227.857H156.929V122.783L174.656 140.479Z" fill="#737373"/>
<path opacity="0.2" d="M227.857 105.098L192.393 69.7066H174.656L227.857 122.783V140.479L156.929 69.7066H210.13L227.857 87.4021V105.098Z" fill="#737373"/>
<path opacity="0.2" d="M304.727 340.677H322.464L287 305.297V287.601L340.201 340.677H357.929H287V322.982L304.727 340.677Z" fill="#737373"/>
<path opacity="0.2" d="M357.929 305.297L322.464 269.906H304.727L357.929 322.982V340.677L287 269.906H340.201L357.929 287.601V305.297Z" fill="#737373"/>
<path opacity="0.2" d="M304.727 269.875H322.464L287 234.494V216.799L340.201 269.875H357.929H287V252.18L304.727 269.875Z" fill="#737373"/>
<path opacity="0.2" d="M357.929 234.494L322.464 199.103H304.727L357.929 252.18V269.875L287 199.103H340.201L357.929 216.799V234.494Z" fill="#737373"/>
<path opacity="0.2" d="M362.726 136.045C362.726 161.003 372.658 184.939 390.338 202.588C408.018 220.236 431.997 230.151 457 230.151L457 136.045L362.726 136.045Z" fill="#737373"/>
</svg>
