<svg width="456" height="401" viewBox="0 0 456 401" fill="none" xmlns="http://www.w3.org/2000/svg">
<path opacity="0.2" d="M413.48 320.165C424.751 320.165 435.56 315.696 443.533 307.739C451.506 299.783 455.99 288.99 456 277.733C456 266.47 451.52 255.668 443.546 247.704C435.572 239.739 424.757 235.265 413.48 235.265H370.948V277.733C370.958 288.992 375.443 299.787 383.419 307.743C391.394 315.7 402.207 320.168 413.48 320.165Z" fill="#737373"/>
<path opacity="0.2" d="M394.832 187.484C401.148 187.484 407.206 189.994 411.675 194.461C416.143 198.928 418.656 204.987 418.661 211.307C418.661 217.631 416.151 223.695 411.682 228.167C407.213 232.638 401.152 235.15 394.832 235.15H370.996V211.307C371.001 204.986 373.515 198.926 377.985 194.458C382.455 189.991 388.514 187.483 394.832 187.484Z" fill="#737373"/>
<path opacity="0.2" d="M200.844 34.7783H94.2737V140.136C94.2737 126.3 97.0302 112.6 102.386 99.8174C107.742 87.0348 115.592 75.4203 125.488 65.6369C135.384 55.8535 147.132 48.0929 160.062 42.7982C172.991 37.5035 186.849 34.7783 200.844 34.7783Z" fill="#737373"/>
<path opacity="0.2" d="M166.315 234.107L166.315 340.677L271.673 340.677C257.837 340.677 244.137 337.921 231.354 332.565C218.572 327.21 206.957 319.36 197.174 309.464C187.39 299.568 179.63 287.819 174.335 274.89C169.04 261.96 166.315 248.102 166.315 234.107Z" fill="#737373"/>
<path opacity="0.2" d="M131.677 183.098H147.56V166.731C147.56 164.582 147.149 162.454 146.351 160.468C145.553 158.483 144.383 156.678 142.908 155.159C141.433 153.639 139.682 152.433 137.755 151.611C135.828 150.788 133.763 150.365 131.677 150.365H115.794V166.731C115.794 171.072 117.467 175.235 120.446 178.304C123.424 181.373 127.464 183.098 131.677 183.098Z" fill="#737373"/>
<path opacity="0.2" d="M57.7812 302.776H95.2986V340.205H57.7812V302.776Z" fill="#737373"/>
<path opacity="0.2" d="M57.7812 340.2H95.2986V302.776L57.7812 340.2Z" fill="#737373"/>
<path opacity="0.2" d="M24.5935 0L59.4339 -1.52292e-06C59.4339 9.22338 63.1043 18.0691 69.6379 24.592C76.1714 31.1148 85.0332 34.7806 94.2744 34.7832L94.2744 69.5566C85.1229 69.5566 76.0611 67.7574 67.6064 64.2618C59.1517 60.7661 51.4697 55.6424 44.9991 49.1834C38.5285 42.7243 33.396 35.0563 29.8948 26.6174C26.3936 18.1785 24.5922 9.13384 24.5935 0Z" fill="#737373"/>
<path opacity="0.2" d="M393.661 118.461L393.665 118.464C400.99 125.772 412.865 125.772 420.19 118.464L420.194 118.461C427.518 111.153 427.518 99.3053 420.194 91.9978L420.19 91.9941C412.865 84.6866 400.99 84.6866 393.665 91.9941L393.661 91.9978C386.337 99.3053 386.337 111.153 393.661 118.461Z" fill="#737373"/>
<path opacity="0.2" d="M183.269 387.656L183.272 387.66C190.597 394.967 202.473 394.967 209.797 387.66L209.801 387.656C217.126 380.349 217.126 368.501 209.801 361.193L209.797 361.19C202.473 353.882 190.597 353.882 183.272 361.19L183.269 361.193C175.944 368.501 175.944 380.349 183.269 387.656Z" fill="#737373"/>
<path opacity="0.2" d="M370.948 235.265H276.674C276.674 222.773 279.112 210.402 283.85 198.861C288.588 187.319 295.532 176.832 304.286 167.999C313.04 159.165 323.433 152.158 334.871 147.377C346.309 142.597 358.568 140.136 370.948 140.136V235.265Z" fill="#737373"/>
<path opacity="0.2" d="M353.221 140.479H335.484L370.948 105.098V87.4021L317.747 140.479H300.019H370.948V122.783L353.221 140.479Z" fill="#737373"/>
<path opacity="0.2" d="M300.019 105.098L335.484 69.7066H353.221L300.019 122.783V140.479L370.948 69.7066H317.747L300.019 87.4021V105.098Z" fill="#737373"/>
<path opacity="0.2" d="M282.292 140.479H264.555L300.019 105.098V87.4021L246.818 140.479H229.091H300.019V122.783L282.292 140.479Z" fill="#737373"/>
<path opacity="0.2" d="M229.091 105.098L264.555 69.7066H282.292L229.091 122.783V140.479L300.019 69.7066H246.818L229.091 87.4021V105.098Z" fill="#737373"/>
<path opacity="0.2" d="M148.588 340.677H130.851L166.315 305.297V287.601L113.114 340.677H95.3866H166.315V322.982L148.588 340.677Z" fill="#737373"/>
<path opacity="0.2" d="M95.3866 305.297L130.851 269.906H148.588L95.3866 322.982V340.677L166.315 269.906H113.114L95.3866 287.601V305.297Z" fill="#737373"/>
<path opacity="0.2" d="M148.588 269.875H130.851L166.315 234.494V216.799L113.114 269.875H95.3866H166.315V252.18L148.588 269.875Z" fill="#737373"/>
<path opacity="0.2" d="M95.3866 234.494L130.851 199.103H148.588L95.3866 252.18V269.875L166.315 199.103H113.114L95.3866 216.799V234.494Z" fill="#737373"/>
<path opacity="0.2" d="M94.2742 136.045C94.2742 161.003 84.3418 184.939 66.6619 202.588C48.9821 220.236 25.0031 230.151 1.73694e-05 230.151L1.32486e-05 136.045L94.2742 136.045Z" fill="#737373"/>
</svg>
