<svg width="173" height="148" viewBox="0 0 173 148" fill="none" xmlns="http://www.w3.org/2000/svg">
<g opacity="0.12">
<g clip-path="url(#clip0_1751_2154)">
<path d="M89.1387 -16.1231L131.304 -16.1231C131.304 -10.5132 130.214 -4.95819 128.095 0.224723C125.976 5.40763 122.87 10.1169 118.954 14.0838C115.039 18.0506 110.391 21.1973 105.275 23.3441C100.159 25.4909 94.6759 26.5959 89.1387 26.5959V-16.1231Z" fill="#8DC22D"/>
<path d="M47 111.65H89.1657V68.9315C89.1657 74.5414 88.075 80.0964 85.956 85.2793C83.837 90.4622 80.7311 95.1715 76.8156 99.1384C72.9002 103.105 68.2519 106.252 63.1361 108.399C58.0203 110.546 52.5373 111.65 47 111.65Z" fill="#5190EE"/>
<path d="M125.129 75.5701L125.124 75.5659C116.892 67.2257 103.545 67.2256 95.313 75.5659L95.3088 75.5701C87.0766 83.9104 87.0766 97.4326 95.3088 105.773L95.313 105.777C103.545 114.117 116.892 114.117 125.124 105.777L125.129 105.773C133.361 97.4326 133.361 83.9104 125.129 75.5701Z" fill="#5190EE"/>
<path d="M68.0803 64.0067H47.0004V42.6441C47.0004 36.98 49.2214 31.5479 53.1746 27.5428C57.1278 23.5377 62.4896 21.2876 68.0803 21.2876H89.1602V42.6441C89.1609 45.4492 88.6163 48.227 87.5572 50.8188C86.4982 53.4105 84.9456 55.7656 82.9881 57.7494C81.0306 59.7331 78.7065 61.3068 76.1486 62.3804C73.5907 63.454 70.849 64.0067 68.0803 64.0067Z" fill="#DB0D1A"/>
<path d="M95.3162 32.8456L95.312 32.8499C87.0798 41.1901 87.0798 54.7123 95.312 63.0526L95.3162 63.0568C103.548 71.3971 116.895 71.397 125.128 63.0568L125.132 63.0526C133.364 54.7123 133.364 41.1901 125.132 32.8499L125.128 32.8456C116.895 24.5054 103.548 24.5054 95.3162 32.8456Z" fill="#8DC22D"/>
<path d="M173.47 -16.1232L131.305 -16.1232V26.5958H173.47V-16.1232Z" fill="#DB0D1A"/>
<path d="M95.2907 63.0821C93.3328 61.0989 91.7798 58.7444 90.7202 56.1531C89.6606 53.5618 89.1152 50.7844 89.1152 47.9795C89.1152 45.1746 89.6606 42.3971 90.7202 39.8058C91.7798 37.2145 93.3328 34.86 95.2907 32.8768C97.2482 30.8933 99.5722 29.3198 102.13 28.2463C104.688 27.1728 107.429 26.6203 110.198 26.6203C112.966 26.6203 115.708 27.1728 118.265 28.2463C120.823 29.3198 123.147 30.8933 125.105 32.8768L95.2907 63.0821Z" fill="white"/>
<path d="M95.2907 105.771C93.3328 103.788 91.7798 101.433 90.7202 98.842C89.6606 96.2507 89.1152 93.4733 89.1152 90.6684C89.1152 87.8635 89.6606 85.086 90.7202 82.4947C91.7798 79.9034 93.3328 77.5489 95.2907 75.5657C97.2482 73.5822 99.5722 72.0087 102.13 70.9352C104.688 69.8617 107.429 69.3092 110.198 69.3092C112.966 69.3092 115.708 69.8617 118.265 70.9352C120.823 72.0087 123.147 73.5822 125.105 75.5657L95.2907 105.771Z" fill="#DB0D1A"/>
<path d="M173.465 26.5898H162.928L173.465 37.271V26.5898Z" fill="#E7CA3C"/>
<path d="M173.465 47.9523L152.385 26.5898H141.842L173.465 58.6276V47.9523Z" fill="#E7CA3C"/>
<path d="M131.305 26.5898V37.2711L162.927 69.3088H152.385L131.305 47.9523V58.6276L141.842 69.3088H173.464L131.305 26.5898Z" fill="#E7CA3C"/>
<path d="M141.842 69.3088H152.385L131.305 90.6654V101.347L162.927 69.3088H173.464H131.305V79.9901L141.842 69.3088Z" fill="white"/>
<path d="M173.464 90.6654L152.385 112.028H141.842L173.464 79.9901V69.3088L131.305 112.028H162.927L173.464 101.347V90.6654Z" fill="white"/>
<path d="M89.1387 21.3384C83.551 21.3384 78.192 19.0908 74.2392 15.0896C70.2865 11.0884 68.0636 5.66093 68.0588 -3.30604e-05H89.1387V21.3384Z" fill="#C100A8"/>
<path d="M68 85.2014C73.5876 85.2014 78.9467 82.9539 82.8994 78.9526C86.8522 74.9514 89.0751 69.524 89.0799 63.863H68V85.2014Z" fill="#8DC22D"/>
<path d="M68.0802 53.3253H57.5372V42.6441C57.5372 41.2414 57.8099 39.8524 58.3398 38.5565C58.8696 37.2606 59.6462 36.0831 60.6252 35.0913C61.6042 34.0994 62.7664 33.3126 64.0455 32.7758C65.3247 32.2391 66.6956 31.9628 68.0802 31.9628H78.623V42.6441C78.623 45.4769 77.5123 48.1937 75.5351 50.1969C73.5579 52.2 70.8763 53.3253 68.0802 53.3253Z" fill="white"/>
<path d="M173.439 5.23328C167.856 5.22689 162.503 2.9765 158.555 -1.02402C154.608 -5.02454 152.388 -10.4483 152.383 -16.1051H173.439V5.23328Z" fill="#C100A8"/>
<path d="M5 154.756L26.0679 154.756C26.0679 149.088 28.2873 143.652 32.2382 139.644C36.189 135.636 41.5477 133.383 47.1358 133.381L47.1358 112.013C41.6019 112.013 36.1223 113.118 31.0097 115.267C25.8972 117.415 21.2519 120.563 17.3392 124.532C13.4264 128.502 10.3229 133.214 8.20569 138.399C6.08851 143.585 4.99922 149.143 5 154.756Z" fill="#C100A8"/>
<path d="M89.1387 112.028C100.322 112.028 111.047 116.529 118.954 124.54C126.862 132.551 131.304 143.417 131.304 154.747H89.1387V112.028Z" fill="#DB0D1A"/>
<path d="M89.1387 133.384C94.7294 133.384 100.091 135.634 104.044 139.64C107.998 143.645 110.219 149.077 110.219 154.741H89.1387V133.384Z" fill="#8DC22D"/>
<path d="M173.47 112.028H131.305V154.747H173.47V112.028Z" fill="#E7CA3C"/>
<path d="M173.464 154.741H131.305V112.028L173.464 154.741Z" fill="white"/>
<path d="M78.4353 154.741L46.8125 122.703V112.028L88.9722 154.741H78.4353Z" fill="white"/>
<path d="M57.3554 154.741L46.8125 144.066V133.384L67.8924 154.741H57.3554Z" fill="white"/>
<path d="M57.3555 112.028H67.8924L88.9723 133.384V144.066L57.3555 112.028Z" fill="white"/>
<path d="M78.4355 112.028H88.9725V122.703L78.4355 112.028Z" fill="white"/>
</g>
</g>
<defs>
<clipPath id="clip0_1751_2154">
<rect width="173" height="148" rx="24" fill="white"/>
</clipPath>
</defs>
</svg>
