<svg width="167" height="35" viewBox="0 0 167 35" fill="none" xmlns="http://www.w3.org/2000/svg">
<path d="M-6.89648 18L13.1035 18L13.1035 -2L-6.89648 -2L-6.89648 18Z" fill="#8EC300"/>
<path d="M33.1035 38H53.1035V18L33.1035 18V38Z" fill="#8EC300"/>
<path d="M73.1035 38H93.1035V18L73.1035 18V38Z" fill="#8EC300"/>
<path d="M113.104 18L133.104 18V-2L113.104 -2V18Z" fill="#8EC300"/>
<path d="M153.104 38H173.104V18L153.104 18V38Z" fill="#8EC300"/>
<path d="M13.1035 18L33.1035 18V-2L13.1035 -2L13.1035 18Z" fill="#E8CB3C"/>
<path d="M33.1035 18L53.1035 18V-2L33.1035 -2V18Z" fill="#C200A9"/>
<path d="M53.1035 18L73.1035 18V-2L53.1035 -2V18Z" fill="#E8CB3C"/>
<path d="M-6.89648 38H13.1035L13.1035 18L-6.89648 18L-6.89648 38Z" fill="#C200A9"/>
<path d="M13.1035 38H33.1035V18L13.1035 18L13.1035 38Z" fill="#DB0D1A"/>
<path d="M53.1035 38H73.1035V18L53.1035 18V38Z" fill="#DB0D1A"/>
<path d="M93.1035 38H113.104V18L93.1035 18V38Z" fill="#E8CB3C"/>
<path d="M113.104 38H133.104V18L113.104 18V38Z" fill="#C200A9"/>
<path d="M133.104 38H153.104V18L133.104 18V38Z" fill="#DB0D1A"/>
<path d="M73.1035 18L93.1035 18V-2L73.1035 -2V18Z" fill="#C200A9"/>
<path d="M93.1035 18L113.104 18V-2L93.1035 -2V18Z" fill="#DB0D1A"/>
<path d="M133.104 18L153.104 18V-2L133.104 -2V18Z" fill="#E8CB3C"/>
<path d="M153.104 18L173.104 18V-2L153.104 -2V18Z" fill="#C200A9"/>
</svg>
