<svg width="230" height="72" viewBox="0 0 230 72" fill="none" xmlns="http://www.w3.org/2000/svg">
<mask id="mask0_1237_8964" style="mask-type:alpha" maskUnits="userSpaceOnUse" x="2" y="13" width="226" height="46">
<path d="M25.926 58.812C21.17 58.812 17.0713 57.884 13.63 56.028C10.1887 54.1333 7.54 51.504 5.684 48.14C3.828 44.7373 2.9 40.774 2.9 36.25C2.9 31.726 3.828 27.782 5.684 24.418C7.54 21.0153 10.1887 18.386 13.63 16.53C17.0713 14.6353 21.17 13.688 25.926 13.688C30.682 13.688 34.7613 14.6353 38.164 16.53C41.6053 18.386 44.254 21.0153 46.11 24.418C47.966 27.782 48.894 31.726 48.894 36.25C48.894 40.774 47.966 44.7373 46.11 48.14C44.254 51.504 41.6053 54.1333 38.164 56.028C34.7613 57.884 30.682 58.812 25.926 58.812ZM25.926 52.49C30.7593 52.49 34.51 51.0787 37.178 48.256C39.846 45.3947 41.18 41.3927 41.18 36.25C41.18 31.1073 39.846 27.1247 37.178 24.302C34.51 21.4407 30.7593 20.01 25.926 20.01C21.0927 20.01 17.3227 21.4407 14.616 24.302C11.948 27.1247 10.614 31.1073 10.614 36.25C10.614 41.3927 11.948 45.3947 14.616 48.256C17.3227 51.0787 21.0927 52.49 25.926 52.49ZM57.0992 58.464C56.2099 58.464 55.3979 58.2513 54.6632 57.826C53.9672 57.4007 53.4065 56.84 52.9812 56.144C52.5559 55.4093 52.3432 54.5973 52.3432 53.708C52.3432 52.8187 52.5559 52.026 52.9812 51.33C53.4065 50.5953 53.9672 50.0153 54.6632 49.59C55.3979 49.1647 56.2099 48.952 57.0992 48.952C57.9885 48.952 58.7812 49.1647 59.4772 49.59C60.2119 50.0153 60.7919 50.5953 61.2172 51.33C61.6425 52.026 61.8552 52.8187 61.8552 53.708C61.8552 54.5973 61.6425 55.4093 61.2172 56.144C60.7919 56.84 60.2119 57.4007 59.4772 57.826C58.7812 58.2513 57.9885 58.464 57.0992 58.464ZM88.344 58.812C83.588 58.812 79.4893 57.884 76.048 56.028C72.6066 54.1333 69.958 51.504 68.102 48.14C66.246 44.7373 65.318 40.774 65.318 36.25C65.318 31.726 66.246 27.782 68.102 24.418C69.958 21.0153 72.6066 18.386 76.048 16.53C79.4893 14.6353 83.588 13.688 88.344 13.688C93.1 13.688 97.1793 14.6353 100.582 16.53C104.023 18.386 106.672 21.0153 108.528 24.418C110.384 27.782 111.312 31.726 111.312 36.25C111.312 40.774 110.384 44.7373 108.528 48.14C106.672 51.504 104.023 54.1333 100.582 56.028C97.1793 57.884 93.1 58.812 88.344 58.812ZM88.344 52.49C93.1773 52.49 96.928 51.0787 99.596 48.256C102.264 45.3947 103.598 41.3927 103.598 36.25C103.598 31.1073 102.264 27.1247 99.596 24.302C96.928 21.4407 93.1773 20.01 88.344 20.01C83.5106 20.01 79.7406 21.4407 77.034 24.302C74.366 27.1247 73.032 31.1073 73.032 36.25C73.032 41.3927 74.366 45.3947 77.034 48.256C79.7406 51.0787 83.5106 52.49 88.344 52.49ZM121.496 14.5H153.28V20.706H123.99L127.18 18.676L124.744 37.004L122.482 37.062C123.371 35.7087 124.57 34.4327 126.078 33.234C127.624 32.0353 129.48 31.0687 131.646 30.334C133.85 29.5607 136.324 29.174 139.07 29.174C142.859 29.174 146.068 29.8313 148.698 31.146C151.327 32.422 153.318 34.162 154.672 36.366C156.064 38.57 156.76 41.064 156.76 43.848C156.76 46.748 155.948 49.3193 154.324 51.562C152.7 53.8047 150.399 55.5833 147.422 56.898C144.483 58.174 140.984 58.812 136.924 58.812C132.864 58.812 129.345 58.2127 126.368 57.014C123.39 55.8153 121.032 54.1913 119.292 52.142C117.59 50.054 116.546 47.734 116.16 45.182H123.874C124.415 47.4633 125.807 49.2613 128.05 50.576C130.292 51.8907 133.25 52.548 136.924 52.548C139.398 52.548 141.525 52.2 143.304 51.504C145.121 50.7693 146.532 49.764 147.538 48.488C148.543 47.1733 149.046 45.6267 149.046 43.848C149.046 42.108 148.62 40.6 147.77 39.324C146.958 38.0093 145.701 37.004 143.999 36.308C142.337 35.5733 140.21 35.206 137.62 35.206C135.493 35.206 133.579 35.4573 131.878 35.96C130.215 36.4627 128.765 37.1007 127.528 37.874C126.329 38.6473 125.324 39.4593 124.512 40.31H118.132L121.496 14.5ZM174.878 39.498C172.094 39.498 169.639 38.976 167.512 37.932C165.385 36.8493 163.723 35.3413 162.524 33.408C161.325 31.4747 160.726 29.2513 160.726 26.738C160.726 24.2247 161.325 22.0207 162.524 20.126C163.723 18.1927 165.385 16.704 167.512 15.66C169.639 14.5773 172.094 14.036 174.878 14.036C177.701 14.036 180.156 14.5773 182.244 15.66C184.371 16.704 186.033 18.1927 187.232 20.126C188.431 22.0207 189.03 24.2247 189.03 26.738C189.03 29.2513 188.431 31.4747 187.232 33.408C186.033 35.3413 184.371 36.8493 182.244 37.932C180.156 38.976 177.701 39.498 174.878 39.498ZM174.878 34.684C177.353 34.684 179.305 33.988 180.736 32.596C182.167 31.1653 182.882 29.2127 182.882 26.738C182.882 24.302 182.167 22.3687 180.736 20.938C179.305 19.5073 177.353 18.792 174.878 18.792C172.403 18.792 170.451 19.5073 169.02 20.938C167.589 22.3687 166.874 24.302 166.874 26.738C166.874 29.2127 167.589 31.1653 169.02 32.596C170.451 33.988 172.403 34.684 174.878 34.684ZM213.796 58.696C211.012 58.696 208.557 58.174 206.43 57.13C204.303 56.0473 202.641 54.5393 201.442 52.606C200.243 50.6727 199.644 48.4493 199.644 45.936C199.644 43.4227 200.243 41.2187 201.442 39.324C202.641 37.3907 204.303 35.902 206.43 34.858C208.557 33.7753 211.012 33.234 213.796 33.234C216.619 33.234 219.074 33.7753 221.162 34.858C223.289 35.902 224.951 37.3907 226.15 39.324C227.349 41.2187 227.948 43.4227 227.948 45.936C227.948 48.4493 227.349 50.6727 226.15 52.606C224.951 54.5393 223.289 56.0473 221.162 57.13C219.074 58.174 216.619 58.696 213.796 58.696ZM213.796 53.882C216.271 53.882 218.223 53.186 219.654 51.794C221.085 50.3633 221.8 48.4107 221.8 45.936C221.8 43.5 221.085 41.5667 219.654 40.136C218.223 38.7053 216.271 37.99 213.796 37.99C211.321 37.99 209.369 38.7053 207.938 40.136C206.507 41.5667 205.792 43.5 205.792 45.936C205.792 48.4107 206.507 50.3633 207.938 51.794C209.369 53.186 211.321 53.882 213.796 53.882ZM203.182 14.5H209.156L185.55 58H179.634L203.182 14.5Z" fill="#E5E8DF"/>
</mask>
<g mask="url(#mask0_1237_8964)">
<rect x="-4" y="-19" width="240" height="110" fill="url(#paint0_linear_1237_8964)"/>
</g>
<defs>
<linearGradient id="paint0_linear_1237_8964" x1="-36.3809" y1="12" x2="319.771" y2="-65.4591" gradientUnits="userSpaceOnUse">
<stop stop-color="#8EC300"/>
<stop offset="1" stop-color="#0091F0"/>
</linearGradient>
</defs>
</svg>
