<svg width="33" height="32" viewBox="0 0 33 32" fill="none" xmlns="http://www.w3.org/2000/svg">
<path d="M10.2938 20.792C9.90328 21.1825 9.90328 21.8157 10.2938 22.2062C10.6843 22.5967 11.3175 22.5967 11.708 22.2062L10.2938 20.792ZM22.9991 10.5009C22.9991 9.94862 22.5514 9.5009 21.9991 9.5009L12.9991 9.5009C12.4468 9.5009 11.9991 9.94862 11.9991 10.5009C11.9991 11.0532 12.4468 11.5009 12.9991 11.5009L20.9991 11.5009L20.9991 19.5009C20.9991 20.0532 21.4468 20.5009 21.9991 20.5009C22.5514 20.5009 22.9991 20.0532 22.9991 19.5009L22.9991 10.5009ZM11.708 22.2062L22.7062 11.208L21.292 9.79379L10.2938 20.792L11.708 22.2062Z" fill="#E5E8DF"/>
</svg>
