<svg width="254" height="382" viewBox="0 0 254 382" fill="none" xmlns="http://www.w3.org/2000/svg">
<g opacity="0.08">
<g clip-path="url(#clip0_1751_5037)">
<path d="M127.884 85.1656L127.884 43L86 43C91.5003 43 96.9468 44.0906 102.028 46.2097C107.11 48.3287 111.727 51.4346 115.617 55.35C119.506 59.2655 122.591 63.9138 124.696 69.0295C126.801 74.1453 127.884 79.6284 127.884 85.1656Z" fill="#5190EE"/>
<path d="M170 128.024L191.068 128.024C191.068 122.467 193.287 117.137 197.238 113.207C201.189 109.277 206.548 107.068 212.136 107.067L212.136 86.1157C206.602 86.1157 201.122 87.1998 196.01 89.3059C190.897 91.4121 186.252 94.4991 182.339 98.3907C178.426 102.282 175.323 106.902 173.206 111.987C171.089 117.071 169.999 122.521 170 128.024Z" fill="#E7CA3C"/>
<path d="M0 0C-1.12243e-07 10.9645 4.50073 21.48 12.5121 29.233C20.5235 36.9861 31.3892 41.3418 42.719 41.3418L42.719 4.37313e-07L0 0Z" fill="#DB0D1A"/>
<path d="M21.3574 0C21.3574 5.48148 23.6075 10.7385 27.6126 14.6145C31.6177 18.4904 37.0498 20.668 42.7139 20.668L42.7139 2.18625e-07L21.3574 0Z" fill="#8DC22D"/>
<path d="M247.726 79.3082L247.722 79.3125C239.49 87.6527 226.143 87.6527 217.911 79.3125L217.906 79.3082C209.674 70.968 209.674 57.4458 217.906 49.1055L217.911 49.1013C226.143 40.7611 239.49 40.7611 247.722 49.1013L247.726 49.1055C255.959 57.4458 255.959 70.968 247.726 79.3082Z" fill="#5190EE"/>
<path d="M80.7263 36.3082L80.7221 36.3125C72.4899 44.6527 59.1429 44.6527 50.9107 36.3125L50.9065 36.3082C42.6743 27.968 42.6743 14.4458 50.9065 6.10554L50.9107 6.1013C59.1429 -2.23893 72.4899 -2.23894 80.7221 6.10129L80.7263 6.10554C88.9585 14.4458 88.9585 27.968 80.7263 36.3082Z" fill="#5190EE"/>
<path d="M191.063 41.8422C185.477 42.0655 180.207 44.5281 176.413 48.688C172.619 52.848 170.611 58.3646 170.831 64.0243C171.052 69.6839 173.482 75.0231 177.588 78.8672C181.694 82.7112 187.14 84.7453 192.726 84.522L213.789 83.6798L212.958 62.3399C212.738 56.6802 210.307 51.3411 206.201 47.497C202.095 43.6529 196.65 41.6188 191.063 41.8422Z" fill="#C100A8"/>
<path d="M254.713 149.24C254.713 143.649 252.463 138.285 248.458 134.327C244.453 130.37 239.021 128.143 233.357 128.138C227.693 128.132 222.261 130.347 218.256 134.296C214.251 138.246 212.001 143.605 212.001 149.196L212.001 170.276L233.357 170.298C239.021 170.304 244.453 168.089 248.458 164.139C252.463 160.19 254.713 154.831 254.713 149.24Z" fill="#C100A8"/>
<path d="M254.47 213.151H212.305V170.432H254.47V213.151Z" fill="#DB0D1A"/>
<path d="M217.89 49.1074C215.932 51.0906 214.379 53.4451 213.32 56.0364C212.26 58.6277 211.715 61.4052 211.715 64.2101C211.715 67.0149 212.26 69.7924 213.32 72.3837C214.379 74.975 215.932 77.3295 217.89 79.3127C219.848 81.2963 222.172 82.8697 224.73 83.9432C227.287 85.0167 230.029 85.5692 232.797 85.5692C235.566 85.5692 238.307 85.0167 240.865 83.9432C243.423 82.8697 245.747 81.2963 247.704 79.3127L217.89 49.1074Z" fill="#DB0D1A"/>
<path d="M50.8903 6.1074C48.9325 8.09058 47.3794 10.4451 46.3198 13.0364C45.2602 15.6277 44.7148 18.4052 44.7148 21.2101C44.7148 24.0149 45.2602 26.7924 46.3198 29.3837C47.3794 31.975 48.9325 34.3295 50.8903 36.3127C52.8478 38.2963 55.1718 39.8697 57.7295 40.9432C60.2873 42.0167 63.0288 42.5692 65.7973 42.5692C68.5659 42.5692 71.3073 42.0167 73.8651 40.9432C76.4229 39.8697 78.7468 38.2963 80.7043 36.3127L50.8903 6.1074Z" fill="#DB0D1A"/>
<path d="M222.842 127.719H233.385L212.305 106.362V95.6812L243.927 127.719H254.464H212.305V117.038L222.842 127.719Z" fill="white"/>
<path d="M127.037 32.6227L127.037 22.0798L105.681 43.1597L94.9993 43.1597L127.037 11.5369L127.037 0.999961L127.037 43.1597L116.356 43.1597L127.037 32.6227Z" fill="white"/>
<path d="M254.464 106.362L233.385 85H222.842L254.464 117.038V127.719L212.305 85H243.927L254.464 95.6812V106.362Z" fill="white"/>
<path d="M233.357 213.116L254.719 234.196L254.719 244.738L222.681 213.116L212 213.116L254.719 255.275L254.719 223.653L244.038 213.116L233.357 213.116Z" fill="white"/>
<path d="M254.439 191.795C248.856 191.801 243.503 194.051 239.555 198.052C235.608 202.052 233.388 207.476 233.383 213.133H254.439V191.795Z" fill="#C100A8"/>
<path d="M170.166 85.719H128V43H170.166V85.719Z" fill="#E7CA3C"/>
<path d="M170.139 42.7191C181.322 42.7191 192.047 38.2184 199.954 30.207C207.862 22.1956 212.304 11.3299 212.304 9.4099e-05H170.139V42.7191Z" fill="#DB0D1A"/>
<path d="M169 128.116C169 139.299 173.501 150.024 181.512 157.931C189.523 165.839 200.389 170.281 211.719 170.281L211.719 128.116L169 128.116Z" fill="#DB0D1A"/>
<path d="M170.139 21.3625C175.729 21.3625 181.091 19.1125 185.044 15.1074C188.998 11.1023 191.219 5.67015 191.219 0.0060552H170.139V21.3625Z" fill="#8DC22D"/>
<path d="M190.357 128.116C190.357 133.706 192.607 139.068 196.613 143.021C200.618 146.975 206.05 149.196 211.714 149.196L211.714 128.116L190.357 128.116Z" fill="#8DC22D"/>
<path d="M254.468 42.719H212.303V-2.79713e-05H254.468V42.719Z" fill="#E7CA3C"/>
<path d="M254.462 0.00600688H212.303V42.719L254.462 0.00600688Z" fill="white"/>
<path d="M170.144 42.719H127.979V-2.79713e-05H170.144V42.719Z" fill="#5190EE"/>
<path d="M97.5429 0.0060552L87 10.6813V21.3625L108.08 0.0060552H97.5429Z" fill="white"/>
<path d="M117.436 42.719H127.972V32.0438L117.436 42.719Z" fill="white"/>
</g>
</g>
<defs>
<clipPath id="clip0_1751_5037">
<rect width="254" height="382" rx="16" fill="white"/>
</clipPath>
</defs>
</svg>
