<svg width="123" height="72" viewBox="0 0 123 72" fill="none" xmlns="http://www.w3.org/2000/svg">
<mask id="mask0_1044_8172" style="mask-type:alpha" maskUnits="userSpaceOnUse" x="2" y="13" width="119" height="46">
<path d="M25.926 58.812C21.17 58.812 17.0713 57.884 13.63 56.028C10.1887 54.1333 7.54 51.504 5.684 48.14C3.828 44.7373 2.9 40.774 2.9 36.25C2.9 31.726 3.828 27.782 5.684 24.418C7.54 21.0153 10.1887 18.386 13.63 16.53C17.0713 14.6353 21.17 13.688 25.926 13.688C30.682 13.688 34.7613 14.6353 38.164 16.53C41.6053 18.386 44.254 21.0153 46.11 24.418C47.966 27.782 48.894 31.726 48.894 36.25C48.894 40.774 47.966 44.7373 46.11 48.14C44.254 51.504 41.6053 54.1333 38.164 56.028C34.7613 57.884 30.682 58.812 25.926 58.812ZM25.926 52.49C30.7593 52.49 34.51 51.0787 37.178 48.256C39.846 45.3947 41.18 41.3927 41.18 36.25C41.18 31.1073 39.846 27.1247 37.178 24.302C34.51 21.4407 30.7593 20.01 25.926 20.01C21.0927 20.01 17.3227 21.4407 14.616 24.302C11.948 27.1247 10.614 31.1073 10.614 36.25C10.614 41.3927 11.948 45.3947 14.616 48.256C17.3227 51.0787 21.0927 52.49 25.926 52.49ZM67.4875 39.498C64.7035 39.498 62.2482 38.976 60.1215 37.932C57.9949 36.8493 56.3322 35.3413 55.1335 33.408C53.9349 31.4747 53.3355 29.2513 53.3355 26.738C53.3355 24.2247 53.9349 22.0207 55.1335 20.126C56.3322 18.1927 57.9949 16.704 60.1215 15.66C62.2482 14.5773 64.7035 14.036 67.4875 14.036C70.3102 14.036 72.7655 14.5773 74.8535 15.66C76.9802 16.704 78.6429 18.1927 79.8415 20.126C81.0402 22.0207 81.6395 24.2247 81.6395 26.738C81.6395 29.2513 81.0402 31.4747 79.8415 33.408C78.6429 35.3413 76.9802 36.8493 74.8535 37.932C72.7655 38.976 70.3102 39.498 67.4875 39.498ZM67.4875 34.684C69.9622 34.684 71.9149 33.988 73.3455 32.596C74.7762 31.1653 75.4915 29.2127 75.4915 26.738C75.4915 24.302 74.7762 22.3687 73.3455 20.938C71.9149 19.5073 69.9622 18.792 67.4875 18.792C65.0129 18.792 63.0602 19.5073 61.6295 20.938C60.1989 22.3687 59.4835 24.302 59.4835 26.738C59.4835 29.2127 60.1989 31.1653 61.6295 32.596C63.0602 33.988 65.0129 34.684 67.4875 34.684ZM106.406 58.696C103.622 58.696 101.166 58.174 99.0395 57.13C96.9129 56.0473 95.2502 54.5393 94.0515 52.606C92.8529 50.6727 92.2535 48.4493 92.2535 45.936C92.2535 43.4227 92.8529 41.2187 94.0515 39.324C95.2502 37.3907 96.9129 35.902 99.0395 34.858C101.166 33.7753 103.622 33.234 106.406 33.234C109.228 33.234 111.684 33.7753 113.772 34.858C115.898 35.902 117.561 37.3907 118.76 39.324C119.958 41.2187 120.558 43.4227 120.558 45.936C120.558 48.4493 119.958 50.6727 118.76 52.606C117.561 54.5393 115.898 56.0473 113.772 57.13C111.684 58.174 109.228 58.696 106.406 58.696ZM106.406 53.882C108.88 53.882 110.833 53.186 112.264 51.794C113.694 50.3633 114.41 48.4107 114.41 45.936C114.41 43.5 113.694 41.5667 112.264 40.136C110.833 38.7053 108.88 37.99 106.406 37.99C103.931 37.99 101.978 38.7053 100.548 40.136C99.1169 41.5667 98.4015 43.5 98.4015 45.936C98.4015 48.4107 99.1169 50.3633 100.548 51.794C101.978 53.186 103.931 53.882 106.406 53.882ZM95.7915 14.5H101.766L78.1595 58H72.2435L95.7915 14.5Z" fill="#E5E8DF"/>
</mask>
<g mask="url(#mask0_1044_8172)">
<rect x="-1" y="-19" width="126" height="110" fill="url(#paint0_linear_1044_8172)"/>
</g>
<defs>
<linearGradient id="paint0_linear_1044_8172" x1="-18" y1="12" x2="175.304" y2="-10.0718" gradientUnits="userSpaceOnUse">
<stop stop-color="#8EC300"/>
<stop offset="1" stop-color="#0091F0"/>
</linearGradient>
</defs>
</svg>
